:FULLY-SPECIFIED
:FORCE-ALL-JOINTS-BE-3DOF
:DEGREES
1121
root 0.926244 14.7192 -28.3558 362.583 1.85347 363.477
lfemur -33.443 9.02829 -26.7963
ltibia 72.8632 0 0
lfoot -27.7699 24.5497 0
ltoes -21.0949 0 0
rfemur -62.8042 -9.1012 23.376
rtibia 85.7746 0 0
rfoot -13.2877 -1.53888 0
rtoes -11.1191 0 0
lowerback 15.7763 0.727206 -11.0146
upperback -0.784701 -0.932239 1.92438
thorax -9.58998 0.176681 8.63907
lowerneck -5.29152 -1.78793 -3.95753
upperneck 4.37852 -2.33359 4.07134
head 2.41544 -1.11381 1.89099
lclavicle 9.17992e-15 -6.4237e-15 0
lhumerus 69.9106 -30.2388 50.8814
lradius 88.3549 0 0
lwrist 31.8476 0 0
lhand -34.1606 39.5498 0
lfingers 7.12502 0 0
lthumb -7.33445 69.398 0
rclavicle 9.17992e-15 -6.4237e-15 0
rhumerus -32.8892 31.6781 -99.1373
rradius 77.7373 0 0
rwrist -27.5835 0 0
rhand -7.49539 -46.7196 0
rfingers 7.12502 0 0
rthumb 18.3909 -75.8337 0
1122
root 0.885562 14.7505 -28.1477 362.569 1.93203 363.431
lfemur -33.3804 9.01299 -26.7101
ltibia 72.7776 0 0
lfoot -27.7405 24.5377 0
ltoes -20.993 0 0
rfemur -62.3131 -9.04738 22.9829
rtibia 85.2861 0 0
rfoot -12.6837 -1.40875 0
rtoes -10.9323 0 0
lowerback 15.7302 0.713685 -10.9465
upperback -0.790402 -0.932042 1.94158
thorax -9.57017 0.172865 8.61728
lowerneck -5.25411 -1.79727 -3.99268
upperneck 4.40481 -2.3496 4.06378
head 2.42271 -1.1235 1.89087
lclavicle 9.96905e-15 -6.53889e-15 0
lhumerus 68.899 -30.3832 51.5239
lradius 88.592 0 0
lwrist 31.8316 0 0
lhand -34.0968 39.5148 0
lfingers 7.12502 0 0
lthumb -7.27284 69.3644 0
rclavicle 9.96905e-15 -6.53889e-15 0
rhumerus -32.5184 31.5205 -98.7013
rradius 78.2306 0 0
rwrist -27.6701 0 0
rhand -7.4079 -46.4929 0
rfingers 7.12502 0 0
rthumb 18.4743 -75.5901 0
1123
root 0.844881 14.7819 -27.9396 362.538 2.08555 363.364
lfemur -33.2484 8.97685 -26.574
ltibia 72.6347 0 0
lfoot -27.7075 24.5169 0
ltoes -20.8519 0 0
rfemur -61.6036 -8.96537 22.3935
rtibia 84.4984 0 0
rfoot -11.7518 -1.20749 0
rtoes -10.6213 0 0
lowerback 15.661 0.693277 -10.8448
upperback -0.798326 -0.931999 1.96719
thorax -9.53963 0.166976 8.5847
lowerneck -5.19315 -1.82213 -4.05589
upperneck 4.44975 -2.38814 4.05928
head 2.43513 -1.14534 1.89391
lclavicle 1.11671e-14 -6.68798e-15 0
lhumerus 67.2947 -30.6552 52.5472
lradius 88.9754 0 0
lwrist 31.8103 0 0
lhand -33.9957 39.467 0
lfingers 7.12502 0 0
lthumb -7.1752 69.3188 0
rclavicle 1.11671e-14 -6.68798e-15 0
rhumerus -31.8949 31.2938 -98.0252
rradius 78.9758 0 0
rwrist -27.7535 0 0
rhand -7.2548 -46.1385 0
rfingers 7.12502 0 0
rthumb 18.6204 -75.2081 0
1124
root 0.804199 14.8133 -27.7315 362.455 2.43972 363.277
lfemur -32.9157 8.87506 -26.3545
ltibia 72.377 0 0
lfoot -27.7029 24.4761 0
ltoes -20.6971 0 0
rfemur -60.7027 -8.84429 21.5596
rtibia 83.1719 0 0
rfoot -10.3328 -0.899191 0
rtoes -10.0625 0 0
lowerback 15.5624 0.663883 -10.7027
upperback -0.80715 -0.932906 2.00275
thorax -9.4932 0.157995 8.539
lowerneck -5.08816 -1.8989 -4.18562
upperneck 4.53455 -2.49848 4.07914
head 2.45853 -1.20421 1.91061
lclavicle 1.29194e-14 -6.80838e-15 0
lhumerus 64.6896 -31.2531 54.2254
lradius 89.625 0 0
lwrist 31.7906 0 0
lhand -33.8317 39.417 0
lfingers 7.12502 0 0
lthumb -7.01687 69.2725 0
rclavicle 1.29194e-14 -6.80838e-15 0
rhumerus -30.7535 31.0104 -96.9823
rradius 80.0513 0 0
rwrist -27.693 0 0
rhand -6.95409 -45.5817 0
rfingers 7.12502 0 0
rthumb 18.9079 -74.6034 0
1125
root 0.763517 14.8446 -27.5234 362.284 3.12026 363.17
lfemur -32.251 8.66284 -26.0183
ltibia 71.947 0 0
lfoot -27.759 24.4041 0
ltoes -20.554 0 0
rfemur -59.6374 -8.67327 20.4329
rtibia 81.0669 0 0
rfoot -8.26745 -0.447916 0
rtoes -9.13232 0 0
lowerback 15.4281 0.623404 -10.5134
upperback -0.815547 -0.935559 2.04981
thorax -9.4257 0.144906 8.47784
lowerneck -4.91868 -2.06399 -4.42032
upperneck 4.68043 -2.72986 4.14468
head 2.49874 -1.32502 1.95145
lclavicle 1.53714e-14 -6.8375e-15 0
lhumerus 60.6752 -32.3753 56.8326
lradius 90.6607 0 0
lwrist 31.7792 0 0
lhand -33.5794 39.3757 0
lfingers 7.12502 0 0
lthumb -6.77321 69.2369 0
rclavicle 1.53714e-14 -6.8375e-15 0
rhumerus -28.8289 30.6822 -95.446
rradius 81.5356 0 0
rwrist -27.3482 0 0
rhand -6.42377 -44.7477 0
rfingers 7.12502 0 0
rthumb 19.4154 -73.6914 0
1126
root 0.722836 14.8759 -27.3153 361.99 4.25289 363.045
lfemur -31.1229 8.29539 -25.532
ltibia 71.2872 0 0
lfoot -27.908 24.29 0
ltoes -20.4481 0 0
rfemur -58.4348 -8.44142 18.9652
rtibia 77.9438 0 0
rfoot -5.39642 0.182264 0
rtoes -7.70709 0 0
lowerback 15.2519 0.569739 -10.27
upperback -0.822194 -0.940755 2.10991
thorax -9.33198 0.126691 8.39886
lowerneck -4.66424 -2.35379 -4.79846
upperneck 4.90858 -3.13153 4.27718
head 2.56158 -1.53265 2.02692
lclavicle 1.86683e-14 -6.71275e-15 0
lhumerus 54.8432 -34.2201 60.6428
lradius 92.2024 0 0
lwrist 31.7831 0 0
lhand -33.2131 39.3539 0
lfingers 7.12502 0 0
lthumb -6.41956 69.2232 0
rclavicle 1.86683e-14 -6.71275e-15 0
rhumerus -25.856 30.3215 -93.2899
rradius 83.5072 0 0
rwrist -26.5786 0 0
rhand -5.58184 -43.5618 0
rfingers 7.12502 0 0
rthumb 20.2216 -72.3879 0
1127
root 0.682154 14.9073 -27.1072 361.538 5.96332 362.901
lfemur -29.4001 7.7279 -24.8622
ltibia 70.34 0 0
lfoot -28.182 24.1227 0
ltoes -20.4048 0 0
rfemur -57.1217 -8.13787 17.1081
rtibia 73.5631 0 0
rfoot -1.56044 1.02727 0
rtoes -5.66324 0 0
lowerback 15.0277 0.500789 -9.96574
upperback -0.825766 -0.94929 2.18457
thorax -9.20686 0.102333 8.29972
lowerneck -4.30438 -2.8047 -5.35851
upperneck 5.24022 -3.75274 4.49797
head 2.6529 -1.85201 2.14752
lclavicle 2.29555e-14 -6.37154e-15 0
lhumerus 46.7853 -36.9856 65.9301
lradius 94.37 0 0
lwrist 31.809 0 0
lhand -32.7074 39.3621 0
lfingers 7.12502 0 0
lthumb -5.93126 69.2428 0
rclavicle 2.29555e-14 -6.37154e-15 0
rhumerus -21.5697 29.9404 -90.3874
rradius 86.0445 0 0
rwrist -25.2434 0 0
rhand -4.34629 -41.9492 0
rfingers 7.12502 0 0
rthumb 21.4053 -70.6085 0
1128
root 0.641473 14.9387 -26.8991 360.893 8.37726 362.74
lfemur -26.9513 6.91559 -23.9757
ltibia 69.048 0 0
lfoot -28.6132 23.8909 0
ltoes -20.4495 0 0
rfemur -55.7253 -7.75173 14.8135
rtibia 67.6851 0 0
rfoot 3.39978 2.12305 0
rtoes -2.87718 0 0
lowerback 14.7491 0.414456 -9.59366
upperback -0.824938 -0.961959 2.27536
thorax -9.04519 0.0708158 8.17809
lowerneck -3.81864 -3.45312 -6.13891
upperneck 5.69655 -4.64274 4.82833
head 2.77852 -2.308 2.32373
lclavicle 2.83783e-14 -5.75128e-15 0
lhumerus 36.093 -40.8703 72.9685
lradius 97.2834 0 0
lwrist 31.8639 0 0
lhand -32.0366 39.4112 0
lfingers 7.12502 0 0
lthumb -5.28365 69.307 0
rclavicle 2.83783e-14 -5.75128e-15 0
rhumerus -15.7047 29.551 -86.6118
rradius 89.2261 0 0
rwrist -23.2024 0 0
rhand -2.63513 -39.835 0
rfingers 7.12502 0 0
rthumb 23.045 -68.2687 0
1129
root 0.600791 14.97 -26.691 360.02 11.6204 362.562
lfemur -23.6451 5.81365 -22.8391
ltibia 67.3535 0 0
lfoot -29.2337 23.5837 0
ltoes -20.6078 0 0
rfemur -54.2724 -7.27214 12.033
rtibia 60.0702 0 0
rfoot 9.64352 3.50551 0
rtoes 0.774702 0 0
lowerback 14.4099 0.308638 -9.14698
upperback -0.818386 -0.97956 2.38379
thorax -8.84179 0.0311209 8.03162
lowerneck -3.18655 -4.33546 -7.17814
upperneck 6.29878 -5.85079 5.28958
head 2.94427 -2.92552 2.56604
lclavicle 3.50821e-14 -4.78938e-15 0
lhumerus 22.3581 -46.0724 82.0321
lradius 101.062 0 0
lwrist 31.9546 0 0
lhand -31.1754 39.512 0
lfingers 7.12502 0 0
lthumb -4.45209 69.4271 0
rclavicle 3.50821e-14 -4.78938e-15 0
rhumerus -7.99591 29.1656 -81.8365
rradius 93.1304 0 0
rwrist -20.3148 0 0
rhand -0.36635 -37.1446 0
rfingers 7.12502 0 0
rthumb 25.2194 -65.2842 0
1130
root 0.56011 15.0013 -26.4829 358.883 15.8185 362.367
lfemur -19.3501 4.37729 -21.419
ltibia 65.1991 0 0
lfoot -30.0758 23.19 0
ltoes -20.905 0 0
rfemur -52.7901 -6.6882 8.71838
rtibia 50.4787 0 0
rfoot 17.3301 5.21059 0
rtoes 5.41599 0 0
lowerback 14.004 0.181237 -8.61885
upperback -0.804784 -1.00289 2.51143
thorax -8.59151 -0.0177684 7.85797
lowerneck -2.38764 -5.48811 -8.51465
upperneck 7.06811 -7.42612 5.90302
head 3.15598 -3.72945 2.88493
lclavicle 4.32122e-14 -3.42324e-15 0
lhumerus 5.17212 -52.7901 93.3949
lradius 105.827 0 0
lwrist 32.0878 0 0
lhand -30.0981 39.6752 0
lfingers 7.12502 0 0
lthumb -3.41191 69.6145 0
rclavicle 4.32122e-14 -3.42324e-15 0
rhumerus 1.82194 28.7962 -75.9351
rradius 97.8359 0 0
rwrist -16.4401 0 0
rhand 2.54205 -33.8032 0
rfingers 7.12502 0 0
rthumb 28.0073 -61.5706 0
1131
root 0.519428 15.0327 -26.2748 357.448 21.0973 362.158
lfemur -13.9351 2.56171 -19.682
ltibia 62.5272 0 0
lfoot -31.1715 22.6986 0
ltoes -21.3666 0 0
rfemur -51.3053 -5.98905 4.82141
rtibia 38.6711 0 0
rfoot 26.6187 7.27421 0
rtoes 11.1703 0 0
lowerback 13.525 0.0301529 -8.00243
upperback -0.782808 -1.03274 2.6598
thorax -8.28917 -0.0768694 7.65478
lowerneck -1.40145 -6.94747 -10.1869
upperneck 8.02576 -9.41799 6.68994
head 3.41948 -4.7447 3.2909
lclavicle 5.2914e-14 -1.59028e-15 0
lhumerus -15.8732 -61.2219 107.331
lradius 111.697 0 0
lwrist 32.2705 0 0
lhand -28.7792 39.9115 0
lfingers 7.12502 0 0
lthumb -2.13845 69.8805 0
rclavicle 5.2914e-14 -1.59028e-15 0
rhumerus 14.014 28.4551 -68.781
rradius 103.421 0 0
rwrist -11.4379 0 0
rhand 6.17206 -29.736 0
rfingers 7.12502 0 0
rthumb 31.4873 -57.0435 0
1132
root 0.482066 14.9914 -26.0555 357.156 22.024 362.169
lfemur -12.8829 2.38571 -19.2923
ltibia 62.115 0 0
lfoot -31.2287 22.9498 0
ltoes -21.267 0 0
rfemur -50.6486 -6.07524 4.13927
rtibia 37.5196 0 0
rfoot 27.3032 7.46662 0
rtoes 11.4169 0 0
lowerback 13.5311 0.0805296 -7.97224
upperback -0.746169 -0.963907 2.60012
thorax -8.26454 -0.0497681 7.5539
lowerneck -1.28117 -7.23904 -10.4766
upperneck 8.1561 -9.82908 6.92887
head 3.49278 -4.94866 3.38019
lclavicle 5.35289e-14 -1.90072e-15 0
lhumerus -20.2512 -60.8979 109.203
lradius 112.221 0 0
lwrist 33.0491 0 0
lhand -27.8892 38.889 0
lfingers 7.12502 0 0
lthumb -1.27999 68.8289 0
rclavicle 5.35289e-14 -1.90072e-15 0
rhumerus 17.0197 27.2143 -66.9222
rradius 103.888 0 0
rwrist -10.148 0 0
rhand 5.07885 -29.5418 0
rfingers 7.12502 0 0
rthumb 30.4329 -56.8716 0
1133
root 0.444705 14.9502 -25.8362 356.997 22.5193 362.179
lfemur -12.3133 2.30045 -19.0803
ltibia 61.9001 0 0
lfoot -31.253 23.1047 0
ltoes -21.2064 0 0
rfemur -50.2899 -6.1352 3.78689
rtibia 36.9713 0 0
rfoot 27.5908 7.55498 0
rtoes 11.495 0 0
lowerback 13.5417 0.113047 -7.96317
upperback -0.724197 -0.92204 2.5625
thorax -8.25392 -0.0325935 7.49671
lowerneck -1.22106 -7.39791 -10.631
upperneck 8.22284 -10.0536 7.0637
head 3.53355 -5.0597 3.42937
lclavicle 5.3722e-14 -2.09416e-15 0
lhumerus -22.5985 -60.6125 110.144
lradius 112.465 0 0
lwrist 33.5098 0 0
lhand -27.3737 38.2739 0
lfingers 7.12502 0 0
lthumb -0.782752 68.1961 0
rclavicle 5.3722e-14 -2.09416e-15 0
rhumerus 18.6712 26.4837 -65.9036
rradius 104.088 0 0
rwrist -9.42562 0 0
rhand 4.39498 -29.4785 0
rfingers 7.12502 0 0
rthumb 29.7735 -56.8261 0
